<svg xmlns="http://www.w3.org/2000/svg" viewBox="0 0 512 512" role="img" aria-label="SG Route Planner logo">
  <g fill="none" stroke="#df2d2f" stroke-linecap="round" stroke-linejoin="round">
    <ellipse cx="256" cy="438" rx="157" ry="35" stroke-width="23" />
    <path
      d="M256 386 114 170C64 94 119 33 256 33s192 61 142 137L256 386Z"
      fill="#ffffff"
      stroke-width="24"
    />
    <path
      d="M356 277c-12-2-20-11-20-24v-36c42-20 63-56 55-101-10-55-61-83-135-83s-125 28-135 83c-8 45 13 81 55 101v36c0 13-8 22-20 24"
      stroke-width="28"
    />
    <path d="M154 165c0-58 38-94 102-94s102 36 102 94" stroke="#ffffff" stroke-width="21" />
    <path d="M154 165c0-58 38-94 102-94s102 36 102 94" stroke-width="11" stroke-dasharray="25 35" />
    <path d="M256 316v53" stroke-width="17" />
    <circle cx="256" cy="365" r="62" fill="#ffffff" stroke-width="22" />
    <circle cx="256" cy="365" r="39" stroke-width="11" />
    <path d="m285 335-18 50-40 19 18-50 40-19Z" fill="#df2d2f" stroke-width="8" />
    <circle cx="256" cy="365" r="7" fill="#ffffff" stroke="none" />
  </g>
  <g fill="#df2d2f">
    <path d="M189 188h134v10H189z" />
    <path d="M202 201h20v64h-20z" />
    <path d="M246 201h20v64h-20z" />
    <path d="M290 201h20v64h-20z" />
    <path d="M184 268h144v11H184z" />
    <path d="M196 178c20 6 100 6 120 0-21-5-99-5-120 0Z" />
    <path d="M174 190c25 8 139 8 164 0-33 15-131 15-164 0Z" />
    <path d="M199 282h14l4 7 5-7h15l4 7 5-7h15l4 7 5-7h15l4 7 5-7h15l-7 18H206l-7-18Z" />
  </g>
</svg>
